<?xml version="1.0" encoding="utf-8"?>
<!-- Generator: Adobe Illustrator 23.1.0, SVG Export Plug-In . SVG Version: 6.00 Build 0)  -->
<svg version="1.1" id="Capa_1" xmlns="http://www.w3.org/2000/svg" xmlns:xlink="http://www.w3.org/1999/xlink" x="0px" y="0px"
	 viewBox="0 0 164.5 164.5" style="enable-background:new 0 0 164.5 164.5;" xml:space="preserve">
<style type="text/css">
	.st0{fill:#5FFFAB;}
	.st1{fill:#465CFF;}
</style>
<g>
	<circle class="st0" cx="82.5" cy="82.4" r="81.8"/>
	<g>
		<path class="st1" d="M48.5,72.2c-0.3-1.3-0.7-4.3-0.7-6.7c0-17,12.9-32.4,35.4-32.4c21.7,0,35,14.4,35,31.2
			c0,12.6-6.9,22.7-18.8,30.1l-18.7,11.4c-3.7,2.4-6.9,5.1-8.4,8.8h46.5v17.8H47c0.1-17,5.5-30.9,22.9-41.4l16-9.6
			c8.2-4.9,11.5-10,11.5-16.7c0-7-4.9-13.3-14.7-13.3c-10.3,0-15.4,7-15.4,16.1c0,1.8,0.3,3.7,0.7,5.4L48.5,72.2z"/>
	</g>
</g>
</svg>
