<?xml version="1.0" encoding="utf-8"?>
<!-- Generator: Adobe Illustrator 23.1.0, SVG Export Plug-In . SVG Version: 6.00 Build 0)  -->
<svg version="1.1" id="Capa_1" xmlns="http://www.w3.org/2000/svg" xmlns:xlink="http://www.w3.org/1999/xlink" x="0px" y="0px"
	 viewBox="0 0 164.5 164.5" style="enable-background:new 0 0 164.5 164.5;" xml:space="preserve">
<style type="text/css">
	.st0{fill:#FFFD45;}
	.st1{fill:#A66FFF;}
</style>
<g>
	<circle class="st0" cx="82.2" cy="82.4" r="81.8"/>
	<g>
		<path class="st1" d="M62.9,74.9l25.4-21.8H45.9V35.3h68.6v16.6L89.4,72.8c14.7,0.6,28.1,11.8,28.1,29.6
			c0,16.7-13.8,32.1-37.2,32.1c-22.6,0-36.3-14.7-37.5-30.9l19.9-3.9c0.4,9.9,7.5,17,17.6,17c10.3,0,16.4-6.6,16.4-14.7
			c0-9.1-6.6-14.4-15.8-14.4c-4.2,0-6.7,0.7-8.8,1.5L62.9,74.9z"/>
	</g>
</g>
</svg>
